/vscmnt/brussel_pixiu_data/_data_brussel/112/vsc11236/PredSimResults/SUBJ04opt3D/worker_11.mot
version=1
nRows=4
nColumns=50
inDegrees=yes
endheader
                time	         pelvis_tilt	         pelvis_list	     pelvis_rotation	           pelvis_tx	           pelvis_ty	           pelvis_tz	       hip_flexion_r	     hip_adduction_r	      hip_rotation_r	        knee_angle_r	       ankle_angle_r	         mtp_angle_r	       hip_flexion_l	     hip_adduction_l	      hip_rotation_l	        knee_angle_l	       ankle_angle_l	         mtp_angle_l	    lumbar_extension	      lumbar_bending	     lumbar_rotation	 ercspn_r/activation	 intobl_r/activation	 extobl_r/activation	    abd_r/activation	    add_r/activation	hamstrings_r/activation	bifemsh_r/activation	glut_max_r/activation	iliopsoas_r/activation	rect_fem_r/activation	  vasti_r/activation	gastroc_r/activation	 soleus_r/activation	tib_ant_r/activation	 ercspn_l/activation	 intobl_l/activation	 extobl_l/activation	    abd_l/activation	    add_l/activation	hamstrings_l/activation	bifemsh_l/activation	glut_max_l/activation	iliopsoas_l/activation	rect_fem_l/activation	  vasti_l/activation	gastroc_l/activation	 soleus_l/activation	tib_ant_l/activation	
          0.94729215	        -13.23099242	          5.41264935	        -14.62379917	          1.51566744	          0.82446611	          0.01057827	        -10.41058050	        -10.34450009	        -15.75167108	        -21.94847836	        -10.58607464	         47.46757242	         54.14366933	         -3.13975870	         -3.66119494	        -33.29174043	          9.73459991	          0.22947397	         -0.61007244	         -3.48656709	          6.94000783	          0.12759915	          0.15812434	          0.00999999	          0.02417494	          0.01315765	          0.02158713	          0.37453275	          0.02045723	          0.09684580	          0.20910246	          0.06185959	          0.27095930	          0.11221889	          0.00999999	          0.25283073	          0.05349938	          0.02277895	          0.00999999	          0.15565805	          0.11173161	          0.25917484	          0.00999999	          0.20279390	          0.02612910	          0.00999999	          0.12165483	          0.03292056	          0.34472496	
          0.96623799	        -13.31670135	          5.09632044	        -14.68449491	          1.56018885	          0.81881103	          0.00758350	        -11.91620671	        -11.20186204	        -17.13337030	        -23.00379189	        -15.06719484	         45.07238377	         52.64642952	         -2.70313974	         -4.22967459	        -35.96767081	          9.01016344	          0.22899101	          0.61197698	         -3.42464785	          7.01514183	          0.09697723	          0.12017682	          0.01000000	          0.01837331	          0.01000001	          0.01640655	          0.37489593	          0.01554779	          0.60091393	          0.34020373	          0.04701420	          0.20593308	          0.11819572	          0.00999999	          0.19593165	          0.04066031	          0.01731234	          0.14035982	          0.21098685	          0.09129821	          0.19697669	          0.56253848	          0.15412635	          0.01985850	          0.04330373	          0.09245946	          0.02502011	          0.52934922	
          0.98518383	        -13.33758394	          4.86376327	        -14.74055080	          1.60378306	          0.81313510	          0.00379132	        -12.04998305	        -12.61260971	        -17.94481787	        -26.12984553	        -19.65951098	         41.35635136	         52.09028791	         -1.94712551	         -3.98529228	        -40.14418042	          9.48878094	          0.12850651	          1.66867815	         -3.36162446	          6.77236993	          0.30034489	          0.09133615	          0.00999999	          0.01396398	          0.01315763	          0.01246925	          0.28492641	          0.01181655	          0.61971204	          0.25855984	          0.03573148	          0.15651216	          0.08983049	          0.00999999	          0.23227366	          0.03090243	          0.01315763	          0.37809740	          0.26283648	          0.09860780	          0.14970518	          0.59541608	          0.11713829	          0.01509275	          0.42584945	          0.07027055	          0.01901565	          0.40231318	
          1.00412968	        -13.30499368	          4.82751723	        -14.77761986	          1.64566390	          0.80987337	         -0.00032512	        -10.73288740	        -14.56232997	        -17.86276325	        -30.79422239	        -24.94557680	         35.49686097	         51.39973155	         -0.88906642	         -3.62645017	        -44.31613264	         12.28858673	          1.13524917	          2.56105309	         -3.47217335	          6.23305963	          0.40714197	          0.06941681	          0.00999999	          0.02891960	          0.00999999	          0.01000002	          0.26973435	          0.00999999	          0.47099025	          0.19650927	          0.02715645	          0.11895154	          0.06827249	          0.00999999	          0.17743840	          0.02348630	          0.01000000	          0.51653867	          0.19975959	          0.13580254	          0.11377813	          0.56787985	          0.08902682	          0.01147071	          0.74629418	          0.10383017	          0.26284602	          0.30576393	
